<svg width="32" height="32" viewBox="0 0 32 32" fill="none" xmlns="http://www.w3.org/2000/svg">
<circle cx="16" cy="16" r="16" fill="#FC7A69"/>
<path d="M16.6247 9.54534C16.6184 11.4792 16.6125 18.6861 16.6062 20.6212C16.6008 22.3961 15.8469 23.6402 14.1261 23.6306C12.0224 23.6176 11.3381 22.1328 11.0098 20.4216C11.3317 20.6607 11.697 20.8352 12.0853 20.9353C12.2361 20.9723 12.3933 20.9745 12.545 20.9418C12.6968 20.9091 12.8391 20.8422 12.9612 20.7464C13.0833 20.6505 13.182 20.5281 13.2498 20.3884C13.3175 20.2488 13.3527 20.0955 13.3524 19.9403V16.6529H9.6001V18.8044L9.60764 18.8165C9.78585 24.514 13.3562 25.551 15.124 25.5979C15.5336 25.6095 15.9432 25.5759 16.3454 25.4977C17.4935 25.2725 18.538 24.6507 19.2344 23.7043C20.1443 22.4666 20.2743 20.9856 20.2776 19.4975C20.281 17.6559 20.2848 12.0758 20.2885 10.2351L20.2961 6.40015H16.6343C16.6315 7.4484 16.6283 8.4968 16.6247 9.54534Z" fill="white"/>
</svg>
